<svg width="1151" height="1071" viewBox="0 0 1151 1071" fill="none" xmlns="http://www.w3.org/2000/svg">
<path d="M180.575 287C6.97472 184.6 -9.7586 53 3.57473 0H1150.07C1146.24 317.333 1140.97 975.1 1150.57 1067.5C1098.97 1075.9 1042.74 1065.33 1021.07 1059C997.075 1052 942.875 1030 918.075 998C893.275 966 854 931.228 811.575 918.5C681.575 879.5 680.575 903 534.075 893C416.875 885 364.575 819.333 353.075 787.5C342.575 772.5 317.875 704.4 303.075 552C288.275 399.6 277 343.878 180.575 287Z" fill="url(#paint0_linear_365_3)"/>
<defs>
<linearGradient id="paint0_linear_365_3" x1="471.575" y1="842.5" x2="1089.07" y2="21" gradientUnits="userSpaceOnUse">
<stop stop-color="#92CCFC"/>
<stop offset="1" stop-color="#325CF2"/>
</linearGradient>
</defs>
</svg>
