<svg width="1445" height="906" viewBox="0 0 1445 906" fill="none" xmlns="http://www.w3.org/2000/svg">
<path d="M1157.5 904L936 902.5C936 903 929.6 882.8 904 798C878.4 713.199 1048.33 500.333 1136.5 404.5L1229.5 172.5L1387.5 7.12061L1444.5 7.62061C1447.17 47.7873 1470.5 185 1187 453.5C943.243 684.36 1078.83 862.167 1157.5 904Z" fill="#325CF2" fill-opacity="0.47"/>
<path d="M1147.5 321C1243.9 161.4 1071.33 44.6667 972.5 5L1432.5 7.5L1388 144C1333 283.5 1215.1 372.1 1069.5 576.5C923.9 780.9 1044.33 877.167 1122 904L0 898V891.5C342.333 767.833 1051.1 480.6 1147.5 321Z" fill="#325CF2"/>
<path d="M1096.5 319C1192.9 159.4 1020.33 42.6667 921.5 3L1381.5 5.5L1337 142C1282 281.5 1164.1 370.1 1018.5 574.5C872.9 778.9 993.333 875.167 1071 902L-51 896V889.5C291.333 765.833 1000.1 478.6 1096.5 319Z" fill="#325CF2" fill-opacity="0.82"/>
</svg>
