<svg width="1445" height="906" viewBox="0 0 1445 906" fill="none" xmlns="http://www.w3.org/2000/svg">
<path d="M1407 7.50049H1350H1182.5C1174.67 77.0003 1142.9 261.2 1078.5 442C1014.1 622.8 887 667.667 831.5 667.5L650.5 897.5C665.833 899.833 737.5 904.5 901.5 904.5C943.9 792.5 993.5 722.833 1013 702C1026.83 683.333 1093.6 620.9 1250 520.5C1445.5 395 1420 363.5 1443 279C1461.4 211.4 1426.67 69.8337 1407 7.50049Z" fill="#325CF2" fill-opacity="0.32"/>
<path d="M0 881V897L853.5 900.5C851.167 874.667 868.7 800 957.5 708C1046.3 616 1218.83 497 1294 449C1320.67 433.667 1378 380.3 1394 289.5C1410 198.7 1375.33 63.3333 1356 6.99999L1022.5 5.14796C1058.1 57.948 1093.5 83.5 1107 160.5C1140.5 414 905.5 463.5 754.5 559.5C633.7 636.3 198.333 808 0 881Z" fill="#325CF2"/>
<path d="M0 862.5V897L853.5 900.5C851.167 874.667 868.7 800 957.5 708C1046.3 616 1218.83 497 1294 449C1320.67 433.667 1378 380.3 1394 289.5C1410 198.7 1375.33 63.3333 1356 7L964 5L965.5 7C1001.1 59.8 1032 122.667 1043 147.5C1143.5 392 897 451.5 746 547.5C625.2 624.3 198.333 789.5 0 862.5Z" fill="#325CF2" fill-opacity="0.86"/>
</svg>
